<svg width="170" height="120" viewBox="0 0 170 120" fill="none" xmlns="http://www.w3.org/2000/svg">
<rect width="170" height="120" rx="5" fill="#F0F0F0"/>
<path d="M103.857 42.8571H66.1429C63.3025 42.8571 61 45.1596 61 48V71.9999C61 74.8402 63.3025 77.1428 66.1429 77.1428H103.857C106.697 77.1428 109 74.8402 109 71.9999V48C109 45.1596 106.697 42.8571 103.857 42.8571ZM105.571 62.7188L94.7834 51.9308C94.1141 51.2616 93.0288 51.2616 92.3595 51.9308L78.1429 66.1473L72.4977 60.5021C71.8283 59.8329 70.7431 59.8329 70.0737 60.5021L64.4285 66.1473V48C64.4285 47.0532 65.196 46.2857 66.1429 46.2857H103.857C104.804 46.2857 105.571 47.0532 105.571 48V62.7188H105.571Z" fill="#CCCCCC"/>
<path d="M76.429 60C79.2693 60 81.5718 57.6975 81.5718 54.8571C81.5718 52.0168 79.2693 49.7143 76.429 49.7143C73.5887 49.7143 71.2861 52.0168 71.2861 54.8571C71.2861 57.6975 73.5887 60 76.429 60Z" fill="#CCCCCC"/>
</svg>
